<svg xmlns="http://www.w3.org/2000/svg" xmlns:xlink="http://www.w3.org/1999/xlink" class="is-hidden">
	<symbol id="Reliant_Logo" viewBox="90.715 145.715 501.002 501.002">
		<circle id="circle" cx="341.216" cy="396.216" r="250.501"/>
		<polygon id="leftLeg" fill="currentColor" points="247.494,493.825 212.078,493.825 288.092,298.175 323.509,298.175 "/>
		<polygon id="middleLeg" fill="currentColor" points="303.209,493.825 267.793,493.825 343.808,298.175 379.223,298.175 "/>
		<path id="rightLeg" fill="currentColor" d="M323.509,493.825c73.422-184.421,68.671-195.65,146.845-195.65l-13.389,35.416
			c-38.871,0-39.734,10.797-98.041,160.234H323.509z"/>
	</symbol>
	<symbol id="github" viewBox="0 0 438.549 438.549">
		<g>
			<path fill="currentColor" d="M409.132,114.573c-19.608-33.596-46.205-60.194-79.798-79.8C295.736,15.166,259.057,5.365,219.271,5.365
			c-39.781,0-76.472,9.804-110.063,29.408c-33.596,19.605-60.192,46.204-79.8,79.8C9.803,148.168,0,184.854,0,224.63
			c0,47.78,13.94,90.745,41.827,128.906c27.884,38.164,63.906,64.572,108.063,79.227c5.14,0.954,8.945,0.283,11.419-1.996
			c2.475-2.282,3.711-5.14,3.711-8.562c0-0.571-0.049-5.708-0.144-15.417c-0.098-9.709-0.144-18.179-0.144-25.406l-6.567,1.136
			c-4.187,0.767-9.469,1.092-15.846,1c-6.374-0.089-12.991-0.757-19.842-1.999c-6.854-1.231-13.229-4.086-19.13-8.559
			c-5.898-4.473-10.085-10.328-12.56-17.556l-2.855-6.57c-1.903-4.374-4.899-9.233-8.992-14.559
			c-4.093-5.331-8.232-8.945-12.419-10.848l-1.999-1.431c-1.332-0.951-2.568-2.098-3.711-3.429c-1.142-1.331-1.997-2.663-2.568-3.997
			c-0.572-1.335-0.098-2.43,1.427-3.289c1.525-0.859,4.281-1.276,8.28-1.276l5.708,0.853c3.807,0.763,8.516,3.042,14.133,6.851
			c5.614,3.806,10.229,8.754,13.846,14.842c4.38,7.806,9.657,13.754,15.846,17.847c6.184,4.093,12.419,6.136,18.699,6.136
			c6.28,0,11.704-0.476,16.274-1.423c4.565-0.952,8.848-2.383,12.847-4.285c1.713-12.758,6.377-22.559,13.988-29.41
			c-10.848-1.14-20.601-2.857-29.264-5.14c-8.658-2.286-17.605-5.996-26.835-11.14c-9.235-5.137-16.896-11.516-22.985-19.126
			c-6.09-7.614-11.088-17.61-14.987-29.979c-3.901-12.374-5.852-26.648-5.852-42.826c0-23.035,7.52-42.637,22.557-58.817
			c-7.044-17.318-6.379-36.732,1.997-58.24c5.52-1.715,13.706-0.428,24.554,3.853c10.85,4.283,18.794,7.952,23.84,10.994
			c5.046,3.041,9.089,5.618,12.135,7.708c17.705-4.947,35.976-7.421,54.818-7.421s37.117,2.474,54.823,7.421l10.849-6.849
			c7.419-4.57,16.18-8.758,26.262-12.565c10.088-3.805,17.802-4.853,23.134-3.138c8.562,21.509,9.325,40.922,2.279,58.24
			c15.036,16.18,22.559,35.787,22.559,58.817c0,16.178-1.958,30.497-5.853,42.966c-3.9,12.471-8.941,22.457-15.125,29.979
			c-6.191,7.521-13.901,13.85-23.131,18.986c-9.232,5.14-18.182,8.85-26.84,11.136c-8.662,2.286-18.415,4.004-29.263,5.146
			c9.894,8.562,14.842,22.077,14.842,40.539v60.237c0,3.422,1.19,6.279,3.572,8.562c2.379,2.279,6.136,2.95,11.276,1.995
			c44.163-14.653,80.185-41.062,108.068-79.226c27.88-38.161,41.825-81.126,41.825-128.906
			C438.536,184.851,428.728,148.168,409.132,114.573z"/>
		</g>
	</symbol>
	<symbol id="tar_archive" viewBox="0 0 550.801 550.801">
		<g>
			<path fill="currentColor" d="M488.426,197.019H475.2v-63.816c0-0.401-0.063-0.799-0.116-1.205c-0.021-2.534-0.827-5.023-2.562-6.992L366.325,3.691
			c-0.032-0.031-0.063-0.042-0.085-0.073c-0.633-0.707-1.371-1.298-2.151-1.804c-0.231-0.158-0.464-0.287-0.706-0.422
			c-0.676-0.366-1.393-0.675-2.131-0.896c-0.2-0.053-0.38-0.135-0.58-0.19C359.87,0.119,359.037,0,358.193,0H97.2
			c-11.918,0-21.6,9.693-21.6,21.601v175.413H62.377c-17.049,0-30.873,13.818-30.873,30.87v160.542
			c0,17.044,13.824,30.876,30.873,30.876h13.224V529.2c0,11.907,9.682,21.601,21.6,21.601h356.4c11.907,0,21.6-9.693,21.6-21.601
			V419.302h13.226c17.044,0,30.871-13.827,30.871-30.87V227.89C519.297,210.838,505.47,197.019,488.426,197.019z M97.2,21.605
			h250.193v110.51c0,5.967,4.841,10.8,10.8,10.8h95.407v54.108H97.2V21.605z M336.319,389.834h-39.256l-12.435-41.396h-46.185
			l-11.491,41.396h-37.811l49.302-161.275h47.851L336.319,389.834z M74.765,259.189v-30.63h123.957v30.63h-44.027v130.645h-36.616
			V259.189H74.765z M453.601,523.353H97.2V419.302h356.4V523.353z M442.336,389.834c-2.626-4.551-6.454-17.719-11.242-37.568
			c-4.314-20.097-11.249-25.597-26.088-25.85H394v63.418h-36.118V230.708c11.724-1.914,29.179-3.362,48.563-3.362
			c23.937,0,40.68,3.594,52.176,12.688c9.565,7.657,14.828,18.9,14.828,33.739c0,20.59-14.597,34.702-28.471,39.717v0.723
			c11.243,4.557,17.471,15.324,21.531,30.164c5.031,18.167,10.051,39.234,13.157,45.457H442.336z"/>
			<path fill="currentColor" d="M410.506,254.389c-8.849,0-13.874,0.717-16.517,1.205v44.508h14.359c18.193,0,28.957-9.098,28.957-23.214
				C437.311,262.056,427.26,254.631,410.506,254.389z"/>
			<path fill="currentColor" d="M269.31,286.923c-2.866-9.561-5.74-21.523-8.126-31.092h-0.48c-2.386,9.563-4.796,21.774-7.414,31.092l-9.579,34.235
					h35.656L269.31,286.923z"/>
		</g>
	</symbol>
	<symbol id="twitter" viewBox="0 0 612 612">
		<g>
			<path fill="currentColor" d="M612,116.258c-22.525,9.981-46.694,16.75-72.088,19.772c25.929-15.527,45.777-40.155,55.184-69.411
				c-24.322,14.379-51.169,24.82-79.775,30.48c-22.907-24.437-55.49-39.658-91.63-39.658c-69.334,0-125.551,56.217-125.551,125.513
				c0,9.828,1.109,19.427,3.251,28.606C197.065,206.32,104.556,156.337,42.641,80.386c-10.823,18.51-16.98,40.078-16.98,63.101
				c0,43.559,22.181,81.993,55.835,104.479c-20.575-0.688-39.926-6.348-56.867-15.756v1.568c0,60.806,43.291,111.554,100.693,123.104
				c-10.517,2.83-21.607,4.398-33.08,4.398c-8.107,0-15.947-0.803-23.634-2.333c15.985,49.907,62.336,86.199,117.253,87.194
				c-42.947,33.654-97.099,53.655-155.916,53.655c-10.134,0-20.116-0.612-29.944-1.721c55.567,35.681,121.536,56.485,192.438,56.485
				c230.948,0,357.188-191.291,357.188-357.188l-0.421-16.253C573.872,163.526,595.211,141.422,612,116.258z"/>
		</g>
	</symbol>
	<symbol id="zip_archive" viewBox="0 90 612 612">
		<path fill="currentColor" d="M341.661,417.49c0-13.205-9.604-16.006-17.631-16.006c-3.366,0-5.72,0.141-7.273,0.354v33.424
			c1.412,0.142,3.107,0.188,5.32,0.188C334.528,435.45,341.661,428.907,341.661,417.49z"/>
		<path fill="currentColor" d="M524.107,189.026c-5.743-5.649-11.628-11.393-17.418-17.23c-5.838-5.79-11.581-11.675-17.23-17.418
				C449.161,113.256,425.175,90,400.154,90H211.846c-51.902,0-94.154,42.251-94.154,94.154v164.769H47.077
				c-12.97,0-23.539,10.569-23.539,23.539v141.231c0,12.97,10.569,23.538,23.539,23.538h70.615v70.615
				c0,51.902,42.251,94.154,94.154,94.154h282.461c51.902,0,94.154-42.252,94.154-94.154V278.308
				C588.462,253.31,565.205,229.301,524.107,189.026z M88.952,509.949v-16.335c0-0.683,0.212-1.389,0.542-1.954l54.091-87.187H97.85
				c-2.072,0-3.743-1.671-3.743-3.742v-25.092c0-2.071,1.671-3.743,3.743-3.743h86.998c2.071,0,3.743,1.671,3.743,3.743v17.536
				c0,0.659-0.212,1.365-0.565,1.954l-52.844,85.939h50.561c2.071,0,3.742,1.671,3.742,3.742v25.139h0.024
				c0,2.072-1.695,3.743-3.743,3.743H92.694C90.623,513.692,88.952,512.021,88.952,509.949z M541.385,607.846
				c0,25.987-21.091,47.077-47.077,47.077H211.846c-25.986,0-47.077-21.09-47.077-47.077V537.23h235.385
				c12.97,0,23.538-10.568,23.538-23.538V372.461c0-12.97-10.568-23.539-23.538-23.539H164.769V184.154
				c0-25.986,21.091-47.077,47.077-47.077l171.572-0.094c16.972,4.331,16.736,25.186,16.736,46.064v71.722
				c0,12.97,10.568,23.539,23.538,23.539h70.615c23.491,0,47.077,0.118,47.077,23.539V607.846z M211.422,509.949v-134.31
				c0-2.071,1.671-3.743,3.743-3.743h27.022c2.072,0,3.743,1.671,3.743,3.743v134.31c0,2.072-1.671,3.743-3.743,3.743h-27.022
				C213.094,513.692,211.422,512.021,211.422,509.949z M282.391,509.926V377.405c0-1.812,1.294-3.343,3.036-3.672
				c9.957-1.883,22.502-2.848,37.356-2.848c17.56,0,30.364,3.837,39.168,11.722c8.897,7.697,14.076,20.079,14.076,33.849
				c0,14.358-4.331,26.622-12.123,34.531c-9.674,10.003-24.079,15.252-41.663,15.252c-2.071,0-3.907-0.07-5.484-0.188v43.875
				c0,2.071-1.671,3.743-3.742,3.743h-26.881C284.062,513.669,282.391,511.998,282.391,509.926z"/>
	</symbol>
	<symbol id="mail" viewBox="0 0 31.806 31.806">
		<g>
			<path fill="currentColor" d="M1.286,12.465c-0.685,0.263-1.171,0.879-1.268,1.606c-0.096,0.728,0.213,1.449,0.806,1.88l6.492,4.724L30.374,2.534
			L9.985,22.621l8.875,6.458c0.564,0.41,1.293,0.533,1.964,0.33c0.67-0.204,1.204-0.713,1.444-1.368l9.494-25.986
			c0.096-0.264,0.028-0.559-0.172-0.756c-0.199-0.197-0.494-0.259-0.758-0.158L1.286,12.465z"/>
		<path fill="currentColor" d="M5.774,22.246l0.055,0.301l1.26,6.889c0.094,0.512,0.436,0.941,0.912,1.148c0.476,0.206,1.025,0.162,1.461-0.119
			c1.755-1.132,4.047-2.634,3.985-2.722L5.774,22.246z"/>
		</g>
	</symbol>
</svg>