<?xml version="1.0" encoding="utf-8"?>
<!-- Generator: Adobe Illustrator 16.0.0, SVG Export Plug-In . SVG Version: 6.00 Build 0)  -->
<!DOCTYPE svg PUBLIC "-//W3C//DTD SVG 1.1//EN" "http://www.w3.org/Graphics/SVG/1.1/DTD/svg11.dtd">
<svg version="1.1" id="zip_archive" xmlns="http://www.w3.org/2000/svg" xmlns:xlink="http://www.w3.org/1999/xlink" x="0px"
	 y="0px" width="612px" height="612px" viewBox="0 90 612 612" enable-background="new 0 90 612 612" xml:space="preserve">
<path fill="currentColor" d="M341.661,417.49c0-13.205-9.604-16.006-17.631-16.006c-3.366,0-5.72,0.141-7.273,0.354v33.424
	c1.412,0.142,3.107,0.188,5.32,0.188C334.528,435.45,341.661,428.907,341.661,417.49z"/>
<path fill="currentColor" d="M524.107,189.026c-5.743-5.649-11.628-11.393-17.418-17.23c-5.838-5.79-11.581-11.675-17.23-17.418
	C449.161,113.256,425.175,90,400.154,90H211.846c-51.902,0-94.154,42.251-94.154,94.154v164.769H47.077
	c-12.97,0-23.539,10.569-23.539,23.539v141.231c0,12.97,10.569,23.538,23.539,23.538h70.615v70.615
	c0,51.902,42.251,94.154,94.154,94.154h282.461c51.902,0,94.154-42.252,94.154-94.154V278.308
	C588.462,253.31,565.205,229.301,524.107,189.026z M88.952,509.949v-16.335c0-0.683,0.212-1.389,0.542-1.954l54.091-87.187H97.85
	c-2.072,0-3.743-1.671-3.743-3.742v-25.092c0-2.071,1.671-3.743,3.743-3.743h86.998c2.071,0,3.743,1.671,3.743,3.743v17.536
	c0,0.659-0.212,1.365-0.565,1.954l-52.844,85.939h50.561c2.071,0,3.742,1.671,3.742,3.742v25.139h0.024
	c0,2.072-1.695,3.743-3.743,3.743H92.694C90.623,513.692,88.952,512.021,88.952,509.949z M541.385,607.846
	c0,25.987-21.091,47.077-47.077,47.077H211.846c-25.986,0-47.077-21.09-47.077-47.077V537.23h235.385
	c12.97,0,23.538-10.568,23.538-23.538V372.461c0-12.97-10.568-23.539-23.538-23.539H164.769V184.154
	c0-25.986,21.091-47.077,47.077-47.077l171.572-0.094c16.972,4.331,16.736,25.186,16.736,46.064v71.722
	c0,12.97,10.568,23.539,23.538,23.539h70.615c23.491,0,47.077,0.118,47.077,23.539V607.846z M211.422,509.949v-134.31
	c0-2.071,1.671-3.743,3.743-3.743h27.022c2.072,0,3.743,1.671,3.743,3.743v134.31c0,2.072-1.671,3.743-3.743,3.743h-27.022
	C213.094,513.692,211.422,512.021,211.422,509.949z M282.391,509.926V377.405c0-1.812,1.294-3.343,3.036-3.672
	c9.957-1.883,22.502-2.848,37.356-2.848c17.56,0,30.364,3.837,39.168,11.722c8.897,7.697,14.076,20.079,14.076,33.849
	c0,14.358-4.331,26.622-12.123,34.531c-9.674,10.003-24.079,15.252-41.663,15.252c-2.071,0-3.907-0.07-5.484-0.188v43.875
	c0,2.071-1.671,3.743-3.742,3.743h-26.881C284.062,513.669,282.391,511.998,282.391,509.926z"/>
</svg>
